<?xml version="1.0" encoding="UTF-8"?>
<svg id="Capa_1" xmlns="http://www.w3.org/2000/svg" width="33.347" height="54.134" version="1.1" viewBox="0 0 33.347 54.134">
  <!-- Generator: Adobe Illustrator 29.3.0, SVG Export Plug-In . SVG Version: 2.1.0 Build 146)  -->
  <defs>
    <style>
      .st0 {
        fill: #6439ff;
      }
    </style>
  </defs>
  <path class="st0" d="M22.197,49.69c-1.494,0-2.49-2.528-2.49-4.827,0-4.292,2.398-8.256,6.311-11.29.129-.1.323-.011.325.153.03,1.478.03,3.312.03,4.472,0,3.908-1.264,11.493-4.177,11.493M8.022,15.478c.154-5.862,1.839-11.034,4.177-11.034,1.494,0,2.49,2.452,2.49,4.751,0,4.438-2.396,8.332-6.34,11.398-.131.101-.326.006-.326-.159v-4.956ZM22.399,21.991c-6.272,0-11.403,4.038-14.099,8.313-.086.136-.291.078-.291-.084l.013-5.657c.001-.229.13-.44.333-.549,7.758-4.17,13.307-8.872,13.307-16.314,0-4.329-1.916-7.7-6.167-7.7C8.75,0,1.51,7.93,1.126,15.401c-.143,2.36-.019,22.797-.001,25.527.001.168.138.3.306.3h6.29c.151,0,.278-.11.299-.26,1.099-7.77,6.626-15.281,12.689-15.345,3.242-.033,4.983,2.218,5.277,3.996.046.286-.094.569-.348.71-7.553,4.2-12.902,8.785-12.902,16.104,0,4.329,1.916,7.7,6.167,7.7,6.666,0,14.023-7.777,14.405-15.171.384-8.658-1.982-16.973-10.909-16.973"/>
  <path class="st0" d="M25.991,20.573c2.452,0,4.444-1.992,4.444-4.444s-1.992-4.444-4.444-4.444c-2.413,0-4.405,1.992-4.405,4.444s1.992,4.444,4.405,4.444"/>
  <path class="st0" d="M4.405,52.327c2.452,0,4.444-1.992,4.444-4.444s-1.992-4.444-4.444-4.444c-2.413,0-4.405,1.992-4.405,4.444s1.992,4.444,4.405,4.444"/>
</svg>