<svg xmlns="http://www.w3.org/2000/svg" version="1.1" xmlns:xlink="http://www.w3.org/1999/xlink" xmlns:svgjs="http://svgjs.dev/svgjs" width="1000" height="1000"><g clip-path="url(#SvgjsClipPath1068)"><rect width="1000" height="1000" fill="#ffffff"></rect><g transform="matrix(14.583333333333334,0,0,14.583333333333334,150,150)"><svg xmlns="http://www.w3.org/2000/svg" version="1.1" xmlns:xlink="http://www.w3.org/1999/xlink" xmlns:svgjs="http://svgjs.dev/svgjs" width="48" height="48"><svg id="Capa_1" xmlns="http://www.w3.org/2000/svg" width="48" height="48" version="1.1" viewBox="0 0 48 48">
  <!-- Generator: Adobe Illustrator 29.2.1, SVG Export Plug-In . SVG Version: 2.1.0 Build 116)  -->
  <defs>
    <style>
      .st0 {
        fill: #6439ff;
      }
    </style>
  <clipPath id="SvgjsClipPath1068"><rect width="1000" height="1000" x="0" y="0" rx="500" ry="500"></rect></clipPath></defs>
  <path class="st0" d="M29.013,43.775c-1.306,0-2.176-2.21-2.176-4.219,0-3.751,2.096-7.216,5.517-9.869.113-.087.282-.01.284.133.026,1.292.026,2.895.026,3.909,0,3.416-1.105,10.046-3.651,10.046M16.623,13.87c.134-5.124,1.608-9.645,3.651-9.645,1.306,0,2.176,2.143,2.176,4.152,0,3.879-2.094,7.283-5.542,9.963-.115.089-.285.005-.285-.139v-4.332ZM29.189,19.563c-5.483,0-9.967,3.529-12.324,7.266-.075.119-.255.068-.255-.073l.011-4.945c.001-.2.114-.385.291-.48,6.781-3.645,11.632-7.755,11.632-14.26,0-3.784-1.675-6.731-5.391-6.731-5.895,0-12.223,6.932-12.559,13.462-.125,2.063-.016,19.927-.001,22.313.001.146.12.262.268.262h5.498c.132,0,.243-.096.261-.227.961-6.792,5.792-13.357,11.091-13.413,2.834-.028,4.356,1.939,4.613,3.493.04.25-.082.497-.304.621-6.602,3.672-11.278,7.679-11.278,14.076,0,3.784,1.675,6.731,5.391,6.731,5.827,0,12.257-6.798,12.592-13.261.336-7.568-1.732-14.836-9.536-14.836"></path>
  <path class="st0" d="M32.329,18.324c2.143,0,3.885-1.741,3.885-3.885s-1.741-3.885-3.885-3.885c-2.11,0-3.851,1.741-3.851,3.885s1.741,3.885,3.851,3.885"></path>
  <path class="st0" d="M13.462,46.08c2.143,0,3.885-1.741,3.885-3.885s-1.741-3.885-3.885-3.885c-2.11,0-3.851,1.741-3.851,3.885s1.741,3.885,3.851,3.885"></path>
</svg></svg></g></g></svg>