<?xml version="1.0" encoding="UTF-8"?>
<svg id="Capa_1" xmlns="http://www.w3.org/2000/svg" width="19.395" height="18.429" version="1.1" viewBox="0 0 19.395 18.429">
  <!-- Generator: Adobe Illustrator 29.3.1, SVG Export Plug-In . SVG Version: 2.1.0 Build 151)  -->
  <defs>
    <style>
      .st0 {
        fill: #fff;
      }
    </style>
  </defs>
  <path class="st0" d="M10.247,0C5.157,0,1.037,4.129,1.037,9.219c0,1.5.36,2.92,1,4.18L.037,17.119c-.36.68.27,1.46,1.01,1.24l4.35-1.31c1.41.87,3.07,1.38,4.85,1.38,5.09,0,9.21-4.13,9.21-9.21S15.337,0,10.247,0ZM15.037,12.409c-.31.75-1.08,1.23-1.86,1.38-.74.14-1.35-.09-2.04-.32-.62-.2-1.21-.5-1.76-.84-1.1-.67-2.05-1.57-2.82-2.61-.23-.32-.45-.65-.65-.99-.26-.45-.5-.93-.62-1.44-.05-.21-.08-.43-.08-.65-.01-.77.29-1.54.89-2.04.36-.29.88-.41,1.28-.19.43.24.65.86.85,1.29.16.34.33.78.27,1.16-.06.37-.36.69-.6.97-.16.19-.19.35-.05.56.79,1.31,1.88,2.27,3.31,2.84.2.08.35.05.47-.1.25-.31.49-.9.87-1.06.5-.2,1.05.08,1.47.33.39.23,1.05.52,1.16,1.01.05.23,0,.48-.09.7Z"/>
</svg>