<?xml version="1.0" encoding="UTF-8"?>
<svg id="Capa_1" xmlns="http://www.w3.org/2000/svg" width="21.492" height="20.422" version="1.1" viewBox="0 0 21.492 20.422">
  <!-- Generator: Adobe Illustrator 29.3.1, SVG Export Plug-In . SVG Version: 2.1.0 Build 151)  -->
  <defs>
    <style>
      .st0 {
        fill: #fff;
      }
    </style>
  </defs>
  <path class="st0" d="M11.354.065C5.749.065,1.213,4.612,1.213,10.216c0,1.652.396,3.215,1.101,4.602L.112,18.915c-.396.749.297,1.607,1.112,1.365l4.79-1.442c1.553.958,3.38,1.519,5.34,1.519,5.604,0,10.141-4.547,10.141-10.141S16.958.065,11.354.065ZM16.628,13.729c-.341.826-1.189,1.354-2.048,1.519-.815.154-1.486-.099-2.246-.352-.683-.22-1.332-.551-1.938-.925-1.211-.738-2.257-1.729-3.105-2.874-.253-.352-.495-.716-.716-1.09-.286-.495-.551-1.024-.683-1.586-.055-.231-.088-.473-.088-.716-.011-.848.319-1.696.98-2.246.396-.319.969-.451,1.409-.209.473.264.716.947.936,1.42.176.374.363.859.297,1.277-.066.407-.396.76-.661,1.068-.176.209-.209.385-.055.617.87,1.442,2.07,2.499,3.644,3.127.22.088.385.055.518-.11.275-.341.54-.991.958-1.167.551-.22,1.156.088,1.619.363.429.253,1.156.573,1.277,1.112.055.253,0,.528-.099.771Z"/>
</svg>